<?xml version="1.0" encoding="UTF-8" standalone="no"?>
<!-- Created with Inkscape (http://www.inkscape.org/) -->

<svg xmlns:dc="http://purl.org/dc/elements/1.1/" xmlns:cc="http://creativecommons.org/ns#" xmlns:rdf="http://www.w3.org/1999/02/22-rdf-syntax-ns#" xmlns:svg="http://www.w3.org/2000/svg" xmlns="http://www.w3.org/2000/svg" xmlns:xlink="http://www.w3.org/1999/xlink" xmlns:sodipodi="http://sodipodi.sourceforge.net/DTD/sodipodi-0.dtd" xmlns:inkscape="http://www.inkscape.org/namespaces/inkscape" width="744.09448" height="524.40942" id="svg4062" version="1.1" inkscape:version="0.48.4 r9939" sodipodi:docname="comparison.svg" inkscape:export-filename="/home/sluedtke/gfz/gitIntro/session_1/pics/comparison.png" inkscape:export-xdpi="84.609467" inkscape:export-ydpi="84.609467">
  <defs id="defs4064">
    <inkscape:path-effect effect="spiro" id="path-effect5006" is_visible="true" />
    <inkscape:path-effect effect="spiro" id="path-effect4998" is_visible="true" />
    <inkscape:path-effect effect="spiro" id="path-effect4780" is_visible="true" />
    <inkscape:path-effect effect="spiro" id="path-effect3216" is_visible="true" />
    <inkscape:path-effect effect="spiro" id="path-effect4006" is_visible="true" />
    <inkscape:path-effect effect="spiro" id="path-effect4006-7" is_visible="true" />
    <inkscape:path-effect effect="spiro" id="path-effect4006-3" is_visible="true" />
    <inkscape:path-effect effect="spiro" id="path-effect5006-5" is_visible="true" />
    <inkscape:path-effect effect="spiro" id="path-effect5006-7" is_visible="true" />
    <inkscape:path-effect effect="spiro" id="path-effect5006-2" is_visible="true" />
    <inkscape:path-effect effect="spiro" id="path-effect5006-5-2" is_visible="true" />
  </defs>
  <sodipodi:namedview id="base" pagecolor="white" bordercolor="#666666" borderopacity="1.0" inkscape:pageopacity="1" inkscape:pageshadow="2" inkscape:zoom="1.6342193" inkscape:cx="372.04724" inkscape:cy="282.31697" inkscape:document-units="px" inkscape:current-layer="layer1" showgrid="false" borderlayer="false" inkscape:window-width="1680" inkscape:window-height="1034" inkscape:window-x="-5" inkscape:window-y="-10" inkscape:window-maximized="1" />
  <metadata id="metadata4067">
    <rdf:RDF>
      <cc:Work rdf:about="">
        <dc:format>image/svg+xml</dc:format>
        <dc:type rdf:resource="http://purl.org/dc/dcmitype/StillImage" />
        <dc:title />
      </cc:Work>
    </rdf:RDF>
  </metadata>
  <g inkscape:label="Layer 1" inkscape:groupmode="layer" id="layer1" transform="translate(0,-527.95272)">
    <text xml:space="preserve" style="font-size:12px;font-style:normal;font-variant:normal;font-weight:bold;font-stretch:normal;text-align:start;line-height:125%;letter-spacing:0px;word-spacing:0px;writing-mode:lr-tb;text-anchor:start;fill:black;fill-opacity:1;stroke:none;font-family:Verdana;-inkscape-font-specification:Sans Bold" x="200.32103" y="277.86047" id="text5148" sodipodi:linespacing="125%" transform="translate(0,527.95272)"><tspan sodipodi:role="line" id="tspan5150" /></text>
    <g id="g3641" transform="matrix(1.0614277,0,0,1.0614277,-33.469227,-82.877633)">
      <g id="g3605">
        <g id="g3267" transform="matrix(1.0424375,0,0,1.0424375,12.48406,60.634398)">
          <image width="150.46548" height="180.78656" xlink:href="file:///home/sluedtke/gfz/gitIntro/session_1/pics/drevil.jpeg" id="image5238" x="227.81699" y="652.73047" />
          <g transform="translate(20.805041,12.850173)" id="g3262">
            <rect style="fill:#fffafa;fill-opacity:1;fill-rule:nonzero;stroke:none" id="rect3260" width="67.92234" height="25.700346" x="278.50964" y="787.18188" rx="9.1739712" ry="17.449369" />
            <text xml:space="preserve" style="font-size:20px;font-style:normal;font-variant:normal;font-weight:bold;font-stretch:normal;text-align:start;line-height:125%;letter-spacing:0px;word-spacing:0px;writing-mode:lr-tb;text-anchor:start;fill:black;fill-opacity:1;stroke:none;font-family:xkcd;-inkscape-font-specification:xkcd Bold" x="284.03394" y="805.55206" id="text3986-99" sodipodi:linespacing="125%"><tspan sodipodi:role="line" x="284.03394" y="805.55206" id="tspan5364">Dr. Evil</tspan></text>
          </g>
        </g>
        <image y="609.61316" x="25.73962" id="image4953" xlink:href="file:///home/sluedtke/gfz/gitIntro/session_1/pics/open_folder.jpeg" height="62.475403" width="81.17041" />
        <text xml:space="preserve" style="font-size:20.84874916px;font-style:normal;font-variant:normal;font-weight:bold;font-stretch:normal;text-align:start;line-height:125%;letter-spacing:0px;word-spacing:0px;writing-mode:lr-tb;text-anchor:start;fill:black;fill-opacity:1;stroke:none;font-family:xkcd;-inkscape-font-specification:xkcd Bold" x="110.2566" y="632.52576" id="text3986-9" sodipodi:linespacing="125%"><tspan sodipodi:role="line" id="tspan3988-9" x="110.2566" y="632.52576">flood_freq_analysis</tspan></text>
        <path style="fill:none;stroke:black;stroke-width:2.60609365;stroke-linecap:butt;stroke-linejoin:miter;stroke-miterlimit:4;stroke-opacity:1;stroke-dasharray:none" d="m 65.471209,633.6132 l 0,375.8799" id="path4996" inkscape:path-effect="#path-effect4998" inkscape:original-d="m 65.471209,633.6132 l 0,375.8799" inkscape:connector-curvature="0" />
        <path style="fill:none;stroke:black;stroke-width:2.26178503;stroke-linecap:butt;stroke-linejoin:miter;stroke-miterlimit:4;stroke-opacity:1;stroke-dasharray:none" d="m 66.542092,718.23638 l 74.208288,0" id="path5004" inkscape:path-effect="#path-effect5006" inkscape:original-d="m 66.542092,718.23638 c 0,0 71.694858,1.92656 74.208288,0" inkscape:connector-curvature="0" />
        <image y="684.48682" x="36.540642" id="image5067" xlink:href="file:///home/sluedtke/gfz/gitIntro/session_1/pics/folder.jpeg" height="64.286438" width="64.286438" />
        <text xml:space="preserve" style="font-size:20.84874916px;font-style:normal;font-variant:normal;font-weight:bold;font-stretch:normal;text-align:start;line-height:125%;letter-spacing:0px;word-spacing:0px;writing-mode:lr-tb;text-anchor:start;fill:black;fill-opacity:1;stroke:none;font-family:xkcd;-inkscape-font-specification:xkcd Bold" x="147.23254" y="722.88464" id="text3986-28" sodipodi:linespacing="125%"><tspan sodipodi:role="line" id="tspan3988-35" x="147.23254" y="722.88464">paper</tspan></text>
        <path style="fill:none;stroke:black;stroke-width:2.26178503;stroke-linecap:butt;stroke-linejoin:miter;stroke-miterlimit:4;stroke-opacity:1;stroke-dasharray:none" d="m 66.542092,801.93594 l 74.208288,0" id="path5004-8" inkscape:path-effect="#path-effect5006-7" inkscape:original-d="m 66.542092,801.93594 c 0,0 71.694858,1.92656 74.208288,0" inkscape:connector-curvature="0" />
        <image y="768.1864" x="36.540642" id="image5067-8" xlink:href="file:///home/sluedtke/gfz/gitIntro/session_1/pics/folder.jpeg" height="64.286438" width="64.286438" />
        <text xml:space="preserve" style="font-size:20.84874916px;font-style:normal;font-variant:normal;font-weight:bold;font-stretch:normal;text-align:start;line-height:125%;letter-spacing:0px;word-spacing:0px;writing-mode:lr-tb;text-anchor:start;fill:black;fill-opacity:1;stroke:none;font-family:xkcd;-inkscape-font-specification:xkcd Bold" x="150.75793" y="803.32983" id="text3986-22" sodipodi:linespacing="125%"><tspan sodipodi:role="line" id="tspan3988-4" x="150.75793" y="803.32983">eGU 2014</tspan></text>
        <path style="fill:none;stroke:black;stroke-width:2.26178503;stroke-linecap:butt;stroke-linejoin:miter;stroke-miterlimit:4;stroke-opacity:1;stroke-dasharray:none" d="m 66.542092,881.77025 l 74.208288,0" id="path5004-69" inkscape:path-effect="#path-effect5006-2" inkscape:original-d="m 66.542092,881.77025 c 0,0 71.694858,1.92656 74.208288,0" inkscape:connector-curvature="0" />
        <image y="848.02069" x="36.540642" id="image5067-1" xlink:href="file:///home/sluedtke/gfz/gitIntro/session_1/pics/folder.jpeg" height="64.286438" width="64.286438" />
        <text xml:space="preserve" style="font-size:20.84874916px;font-style:normal;font-variant:normal;font-weight:bold;font-stretch:normal;text-align:start;line-height:125%;letter-spacing:0px;word-spacing:0px;writing-mode:lr-tb;text-anchor:start;fill:black;fill-opacity:1;stroke:none;font-family:xkcd;-inkscape-font-specification:xkcd Bold" x="148.17073" y="886.37683" id="text3986-4" sodipodi:linespacing="125%"><tspan sodipodi:role="line" id="tspan3988-93" x="148.17073" y="886.37683">AGU 2014</tspan></text>
        <text xml:space="preserve" style="font-size:20.84874916px;font-style:normal;font-variant:normal;font-weight:500;font-stretch:normal;text-align:start;line-height:125%;letter-spacing:0px;word-spacing:0px;writing-mode:lr-tb;text-anchor:start;fill:black;fill-opacity:1;stroke:none;font-family:xkcd;-inkscape-font-specification:xkcd Medium" x="156.64519" y="747.55884" id="text3193" sodipodi:linespacing="125%"><tspan sodipodi:role="line" id="tspan3195" x="156.64519" y="747.55884">./FILE.R</tspan></text>
        <text xml:space="preserve" style="font-size:20.84874916px;font-style:normal;font-variant:normal;font-weight:500;font-stretch:normal;text-align:start;line-height:125%;letter-spacing:0px;word-spacing:0px;writing-mode:lr-tb;text-anchor:start;fill:black;fill-opacity:1;stroke:none;font-family:xkcd;-inkscape-font-specification:xkcd Medium" x="156.64519" y="828.99445" id="text3193-3" sodipodi:linespacing="125%"><tspan sodipodi:role="line" id="tspan3195-1" x="156.64519" y="828.99445">./FILE.R</tspan></text>
        <text xml:space="preserve" style="font-size:20.84874916px;font-style:normal;font-variant:normal;font-weight:500;font-stretch:normal;text-align:start;line-height:125%;letter-spacing:0px;word-spacing:0px;writing-mode:lr-tb;text-anchor:start;fill:black;fill-opacity:1;stroke:none;font-family:xkcd;-inkscape-font-specification:xkcd Medium" x="156.64519" y="913.6106" id="text3193-6" sodipodi:linespacing="125%"><tspan sodipodi:role="line" id="tspan3195-2" x="156.64519" y="913.6106">./FILE.R</tspan></text>
        <path style="fill:none;stroke:black;stroke-width:2.26178503;stroke-linecap:butt;stroke-linejoin:miter;stroke-miterlimit:4;stroke-opacity:1;stroke-dasharray:none" d="m 66.509807,969.81796 l 74.208293,0" id="path5004-6" inkscape:path-effect="#path-effect5006-5-2" inkscape:original-d="m 66.509807,969.81796 c 0,0 71.694853,1.92656 74.208293,0" inkscape:connector-curvature="0" />
        <image y="936.06842" x="36.508354" id="image5067-3" xlink:href="file:///home/sluedtke/gfz/gitIntro/session_1/pics/folder.jpeg" height="64.286438" width="64.286438" />
        <text xml:space="preserve" style="font-size:20.84874916px;font-style:normal;font-variant:normal;font-weight:bold;font-stretch:normal;text-align:start;line-height:125%;letter-spacing:0px;word-spacing:0px;writing-mode:lr-tb;text-anchor:start;fill:black;fill-opacity:1;stroke:none;font-family:xkcd;-inkscape-font-specification:xkcd Bold" x="147.40874" y="974.10138" id="text3986-98" sodipodi:linespacing="125%"><tspan sodipodi:role="line" x="147.40874" y="974.10138" id="tspan3334">New DATa Structure</tspan></text>
        <text xml:space="preserve" style="font-size:20.84874916px;font-style:normal;font-variant:normal;font-weight:500;font-stretch:normal;text-align:start;line-height:125%;letter-spacing:0px;word-spacing:0px;writing-mode:lr-tb;text-anchor:start;fill:black;fill-opacity:1;stroke:none;font-family:xkcd;-inkscape-font-specification:xkcd Medium" x="155.97502" y="999.60339" id="text3193-4" sodipodi:linespacing="125%"><tspan sodipodi:role="line" id="tspan3195-6" x="155.97502" y="999.60339">./FILE.R</tspan></text>
      </g>
      <g transform="matrix(1.0424375,0,0,1.0424375,4.7053017,-43.622487)" id="g3537">
        <image y="864.71143" x="567.05945" id="image4891" xlink:href="file:///home/sluedtke/gfz/gitIntro/session_1/pics/logo.png" height="141.14928" width="141.14928" />
        <g id="g3502" transform="translate(-28,13.854065)">
          <text sodipodi:linespacing="125%" id="text3986" y="746.24738" x="524.77454" style="font-size:20px;font-style:normal;font-variant:normal;font-weight:bold;font-stretch:normal;text-align:start;line-height:125%;letter-spacing:0px;word-spacing:0px;writing-mode:lr-tb;text-anchor:start;fill:black;fill-opacity:1;stroke:none;font-family:xkcd;-inkscape-font-specification:xkcd Bold" xml:space="preserve"><tspan y="746.24738" x="524.77454" id="tspan3988" sodipodi:role="line">paper</tspan></text>
          <text sodipodi:linespacing="125%" id="text3986-2" y="958.03931" x="450.33002" style="font-size:20px;font-style:normal;font-variant:normal;font-weight:bold;font-stretch:normal;text-align:start;line-height:125%;letter-spacing:0px;word-spacing:0px;writing-mode:lr-tb;text-anchor:start;fill:green;fill-opacity:1;stroke:none;font-family:xkcd;-inkscape-font-specification:xkcd Bold" xml:space="preserve"><tspan y="958.03931" x="450.33002" id="tspan3988-0" sodipodi:role="line">AGU 2014</tspan></text>
          <text sodipodi:linespacing="125%" id="text3986-5" y="770.25598" x="635.47992" style="font-size:20px;font-style:normal;font-variant:normal;font-weight:bold;font-stretch:normal;text-align:start;line-height:125%;letter-spacing:0px;word-spacing:0px;writing-mode:lr-tb;text-anchor:start;fill:#ff8c00;fill-opacity:1;stroke:none;font-family:xkcd;-inkscape-font-specification:xkcd Bold" xml:space="preserve"><tspan y="770.25598" x="635.47992" id="tspan3988-2" sodipodi:role="line">EGU 2014</tspan></text>
          <text sodipodi:linespacing="125%" id="text3986-7" y="816.87024" x="471.09473" style="font-size:20px;font-style:normal;font-variant:normal;font-weight:bold;font-stretch:normal;text-align:start;line-height:125%;letter-spacing:0px;word-spacing:0px;writing-mode:lr-tb;text-anchor:start;fill:#2460d1;fill-opacity:1;stroke:none;font-family:xkcd;-inkscape-font-specification:xkcd Bold" xml:space="preserve"><tspan y="816.87024" x="471.09473" id="tspan3988-3" sodipodi:role="line">new data </tspan><tspan id="tspan3328" y="841.87024" x="471.09473" sodipodi:role="line">structure</tspan></text>
          <g transform="matrix(1.1662907,0,0,1.1662907,-87.234146,-168.63022)" id="g3448">
            <path style="fill:black;fill-opacity:0;stroke:#ff8d00;stroke-width:1.86958325;stroke-linecap:butt;stroke-linejoin:miter;stroke-miterlimit:4;stroke-opacity:0.64705882;stroke-dasharray:none" d="m 586.14927,737.22898 c 4.09129,0.72582 8.00557,2.42146 11.34131,4.89903 c 3.33574,2.47757 6.07897,5.72874 8.04966,9.38686 c 1.97069,3.65812 3.16447,7.70393 3.7737,11.8142 c 0.60924,4.11027 0.63761,8.28176 0.63761,12.43693 l 0,96.34254" id="path4004" inkscape:path-effect="#path-effect4006" inkscape:original-d="m 586.14927,737.22898 c 0,0 23.80228,12.46786 23.80228,38.53702 c 0,26.06916 0,96.34254 0,96.34254" inkscape:connector-curvature="0" sodipodi:nodetypes="csc" />
            <path style="fill:none;stroke:green;stroke-width:1.86958325;stroke-linecap:butt;stroke-linejoin:miter;stroke-miterlimit:4;stroke-opacity:1;stroke-dasharray:none" d="m 558.23628,896.48866 c -4.27921,-0.68422 -8.75106,-0.0974 -12.71565,1.65241 c -3.96459,1.74981 -7.39427,4.64954 -9.88562,8.19538 c -2.49135,3.54584 -4.03699,7.70216 -4.82303,11.96385 c -0.78603,4.26169 -0.82353,8.62135 -0.82353,12.95492 l 0,49.43369" id="path4778" inkscape:path-effect="#path-effect4780" inkscape:original-d="m 558.23628,896.48866 c 0,0 -28.24783,20.09941 -28.24783,34.76656 c 0,14.66714 0,49.43369 0,49.43369" inkscape:connector-curvature="0" sodipodi:nodetypes="csc" />
            <path style="fill:none;stroke:#2460d1;stroke-width:1.70114911;stroke-linecap:butt;stroke-linejoin:miter;stroke-miterlimit:4;stroke-opacity:1;stroke-dasharray:none" d="m 583.76211,844.53837 c -3.77509,-0.25849 -7.61509,0.54233 -10.97857,2.27586 c -3.36349,1.73352 -6.23006,4.38927 -8.30544,7.55327 c -2.07538,3.164 -3.35404,6.80935 -4.00495,10.53687 c -0.65091,3.72753 -0.68175,7.53194 -0.68175,11.31587 l 0,79.20467 c 0,3.75727 0.0296,7.53371 0.65717,11.2382 c 0.62756,3.7045 1.85967,7.33233 3.86664,10.50868 c 2.00697,3.17634 4.78369,5.87653 8.06648,7.70419 c 3.2828,1.82766 7.05319,2.77294 10.80969,2.69672" id="path4004-2" inkscape:path-effect="#path-effect4006-7" inkscape:original-d="m 583.76211,844.53837 c 0,0 -23.97071,10.25001 -23.97071,31.68187 c 0,21.43185 0,79.20467 0,79.20467 c -0.3383,19.2553 23.91986,32.03153 23.39998,32.14779" inkscape:connector-curvature="0" sodipodi:nodetypes="cscc" />
            <path style="fill:none;stroke:black;stroke-width:1.5091902;stroke-linecap:butt;stroke-linejoin:miter;stroke-miterlimit:4;stroke-opacity:1;stroke-dasharray:none" d="m 586.14927,713.08169 l 0,300.23271" id="path3214" inkscape:path-effect="#path-effect3216" inkscape:original-d="m 586.14927,713.08169 l 0,300.23271" inkscape:connector-curvature="0" />
            <path transform="matrix(0,0.47816823,-0.47816823,0,608.0723,700.65961)" d="m 81.844248,45.847935 c 0,4.394573 -3.562506,7.957079 -7.957079,7.957079 c -4.394574,0 -7.95708,-3.562506 -7.95708,-7.957079 c 0,-4.394574 3.562506,-7.95708 7.95708,-7.95708 c 4.394573,0 7.957079,3.562506 7.957079,7.95708 z" sodipodi:ry="7.9570794" sodipodi:rx="7.9570794" sodipodi:cy="45.847935" sodipodi:cx="73.887169" id="use3994" style="fill:black;fill-opacity:1;fill-rule:nonzero;stroke:black;stroke-width:3;stroke-linecap:square;stroke-linejoin:miter;stroke-miterlimit:4;stroke-opacity:1;stroke-dasharray:none;stroke-dashoffset:0" sodipodi:type="arc" />
            <path transform="matrix(0,0.47816823,-0.47816823,0,608.0723,726.72877)" d="m 81.844248,45.847935 c 0,4.394573 -3.562506,7.957079 -7.957079,7.957079 c -4.394574,0 -7.95708,-3.562506 -7.95708,-7.957079 c 0,-4.394574 3.562506,-7.95708 7.95708,-7.95708 c 4.394573,0 7.957079,3.562506 7.957079,7.95708 z" sodipodi:ry="7.9570794" sodipodi:rx="7.9570794" sodipodi:cy="45.847935" sodipodi:cx="73.887169" id="use3996" style="fill:black;fill-opacity:1;fill-rule:nonzero;stroke:black;stroke-width:3;stroke-linecap:square;stroke-linejoin:miter;stroke-miterlimit:4;stroke-opacity:1;stroke-dasharray:none;stroke-dashoffset:0" sodipodi:type="arc" />
            <path transform="matrix(0,0.47816823,-0.47816823,0,608.0723,745.99727)" d="m 81.844248,45.847935 c 0,4.394573 -3.562506,7.957079 -7.957079,7.957079 c -4.394574,0 -7.95708,-3.562506 -7.95708,-7.957079 c 0,-4.394574 3.562506,-7.95708 7.95708,-7.95708 c 4.394573,0 7.957079,3.562506 7.957079,7.95708 z" sodipodi:ry="7.9570794" sodipodi:rx="7.9570794" sodipodi:cy="45.847935" sodipodi:cx="73.887169" id="use3998" style="fill:black;fill-opacity:1;fill-rule:nonzero;stroke:black;stroke-width:3;stroke-linecap:square;stroke-linejoin:miter;stroke-miterlimit:4;stroke-opacity:1;stroke-dasharray:none;stroke-dashoffset:0" sodipodi:type="arc" />
            <path transform="matrix(0,0.47816823,-0.47816823,0,632.15793,789.06805)" d="m 81.844248,45.847935 c 0,4.394573 -3.562506,7.957079 -7.957079,7.957079 c -4.394574,0 -7.95708,-3.562506 -7.95708,-7.957079 c 0,-4.394574 3.562506,-7.95708 7.95708,-7.95708 c 4.394573,0 7.957079,3.562506 7.957079,7.95708 z" sodipodi:ry="7.9570794" sodipodi:rx="7.9570794" sodipodi:cy="45.847935" sodipodi:cx="73.887169" id="use4008" style="fill:black;fill-opacity:1;fill-rule:nonzero;stroke:black;stroke-width:3;stroke-linecap:square;stroke-linejoin:miter;stroke-miterlimit:4;stroke-opacity:1;stroke-dasharray:none;stroke-dashoffset:0" sodipodi:type="arc" />
            <path transform="matrix(0,0.47816823,-0.47816823,0,632.72465,833.50612)" d="m 81.844248,45.847935 c 0,4.394573 -3.562506,7.957079 -7.957079,7.957079 c -4.394574,0 -7.95708,-3.562506 -7.95708,-7.957079 c 0,-4.394574 3.562506,-7.95708 7.95708,-7.95708 c 4.394573,0 7.957079,3.562506 7.957079,7.95708 z" sodipodi:ry="7.9570794" sodipodi:rx="7.9570794" sodipodi:cy="45.847935" sodipodi:cx="73.887169" id="use4010" style="fill:black;fill-opacity:1;fill-rule:nonzero;stroke:black;stroke-width:3;stroke-linecap:square;stroke-linejoin:miter;stroke-miterlimit:4;stroke-opacity:1;stroke-dasharray:none;stroke-dashoffset:0" sodipodi:type="arc" />
            <path transform="matrix(0,0.47816823,-0.47816823,0,608.0723,782.37285)" d="m 81.844248,45.847935 c 0,4.394573 -3.562506,7.957079 -7.957079,7.957079 c -4.394574,0 -7.95708,-3.562506 -7.95708,-7.957079 c 0,-4.394574 3.562506,-7.95708 7.95708,-7.95708 c 4.394573,0 7.957079,3.562506 7.957079,7.95708 z" sodipodi:ry="7.9570794" sodipodi:rx="7.9570794" sodipodi:cy="45.847935" sodipodi:cx="73.887169" id="use4012" style="fill:black;fill-opacity:1;fill-rule:nonzero;stroke:black;stroke-width:3;stroke-linecap:square;stroke-linejoin:miter;stroke-miterlimit:4;stroke-opacity:1;stroke-dasharray:none;stroke-dashoffset:0" sodipodi:type="arc" />
            <path transform="matrix(0,0.47816823,-0.47816823,0,608.0723,875.31507)" d="m 81.844248,45.847935 c 0,4.394573 -3.562506,7.957079 -7.957079,7.957079 c -4.394574,0 -7.95708,-3.562506 -7.95708,-7.957079 c 0,-4.394574 3.562506,-7.95708 7.95708,-7.95708 c 4.394573,0 7.957079,3.562506 7.957079,7.95708 z" sodipodi:ry="7.9570794" sodipodi:rx="7.9570794" sodipodi:cy="45.847935" sodipodi:cx="73.887169" id="use4014" style="fill:black;fill-opacity:1;fill-rule:nonzero;stroke:black;stroke-width:3;stroke-linecap:square;stroke-linejoin:miter;stroke-miterlimit:4;stroke-opacity:1;stroke-dasharray:none;stroke-dashoffset:0" sodipodi:type="arc" />
            <path transform="matrix(0,0.47816823,-0.47816823,0,607.50557,810.21828)" d="m 81.844248,45.847935 c 0,4.394573 -3.562506,7.957079 -7.957079,7.957079 c -4.394574,0 -7.95708,-3.562506 -7.95708,-7.957079 c 0,-4.394574 3.562506,-7.95708 7.95708,-7.95708 c 4.394573,0 7.957079,3.562506 7.957079,7.95708 z" sodipodi:ry="7.9570794" sodipodi:rx="7.9570794" sodipodi:cy="45.847935" sodipodi:cx="73.887169" id="use4016" style="fill:black;fill-opacity:1;fill-rule:nonzero;stroke:black;stroke-width:3;stroke-linecap:square;stroke-linejoin:miter;stroke-miterlimit:4;stroke-opacity:1;stroke-dasharray:none;stroke-dashoffset:0" sodipodi:type="arc" />
            <path transform="matrix(0,0.47816823,-0.47816823,0,608.63902,922.3529)" d="m 81.844248,45.847935 c 0,4.394573 -3.562506,7.957079 -7.957079,7.957079 c -4.394574,0 -7.95708,-3.562506 -7.95708,-7.957079 c 0,-4.394574 3.562506,-7.95708 7.95708,-7.95708 c 4.394573,0 7.957079,3.562506 7.957079,7.95708 z" sodipodi:ry="7.9570794" sodipodi:rx="7.9570794" sodipodi:cy="45.847935" sodipodi:cx="73.887169" id="use4039" style="fill:black;fill-opacity:1;fill-rule:nonzero;stroke:black;stroke-width:3;stroke-linecap:square;stroke-linejoin:miter;stroke-miterlimit:4;stroke-opacity:1;stroke-dasharray:none;stroke-dashoffset:0" sodipodi:type="arc" />
            <path transform="matrix(0,0.47816823,-0.47816823,0,606.46008,953.81418)" d="m 81.844248,45.847935 c 0,4.394573 -3.562506,7.957079 -7.957079,7.957079 c -4.394574,0 -7.95708,-3.562506 -7.95708,-7.957079 c 0,-4.394574 3.562506,-7.95708 7.95708,-7.95708 c 4.394573,0 7.957079,3.562506 7.957079,7.95708 z" sodipodi:ry="7.9570794" sodipodi:rx="7.9570794" sodipodi:cy="45.847935" sodipodi:cx="73.887169" id="use4041" style="fill:black;fill-opacity:1;fill-rule:nonzero;stroke:black;stroke-width:3;stroke-linecap:square;stroke-linejoin:miter;stroke-miterlimit:4;stroke-opacity:1;stroke-dasharray:none;stroke-dashoffset:0" sodipodi:type="arc" />
            <path transform="matrix(0,0.47816823,-0.47816823,0,581.18391,860.62548)" d="m 81.844248,45.847935 c 0,4.394573 -3.562506,7.957079 -7.957079,7.957079 c -4.394574,0 -7.95708,-3.562506 -7.95708,-7.957079 c 0,-4.394574 3.562506,-7.95708 7.95708,-7.95708 c 4.394573,0 7.957079,3.562506 7.957079,7.95708 z" sodipodi:ry="7.9570794" sodipodi:rx="7.9570794" sodipodi:cy="45.847935" sodipodi:cx="73.887169" id="use4198" style="fill:black;fill-opacity:1;fill-rule:nonzero;stroke:black;stroke-width:3;stroke-linecap:square;stroke-linejoin:miter;stroke-miterlimit:4;stroke-opacity:1;stroke-dasharray:none;stroke-dashoffset:0" sodipodi:type="arc" />
            <path transform="matrix(0,0.47816823,-0.47816823,0,581.18391,912.86577)" d="m 81.844248,45.847935 c 0,4.394573 -3.562506,7.957079 -7.957079,7.957079 c -4.394574,0 -7.95708,-3.562506 -7.95708,-7.957079 c 0,-4.394574 3.562506,-7.95708 7.95708,-7.95708 c 4.394573,0 7.957079,3.562506 7.957079,7.95708 z" sodipodi:ry="7.9570794" sodipodi:rx="7.9570794" sodipodi:cy="45.847935" sodipodi:cx="73.887169" id="use4200" style="fill:black;fill-opacity:1;fill-rule:nonzero;stroke:black;stroke-width:3;stroke-linecap:square;stroke-linejoin:miter;stroke-miterlimit:4;stroke-opacity:1;stroke-dasharray:none;stroke-dashoffset:0" sodipodi:type="arc" />
            <path transform="matrix(0,0.47816823,-0.47816823,0,551.27399,945.77295)" d="m 81.844248,45.847935 c 0,4.394573 -3.562506,7.957079 -7.957079,7.957079 c -4.394574,0 -7.95708,-3.562506 -7.95708,-7.957079 c 0,-4.394574 3.562506,-7.95708 7.95708,-7.95708 c 4.394573,0 7.957079,3.562506 7.957079,7.95708 z" sodipodi:ry="7.9570794" sodipodi:rx="7.9570794" sodipodi:cy="45.847935" sodipodi:cx="73.887169" id="use4731" style="fill:black;fill-opacity:1;fill-rule:nonzero;stroke:black;stroke-width:3;stroke-linecap:square;stroke-linejoin:miter;stroke-miterlimit:4;stroke-opacity:1;stroke-dasharray:none;stroke-dashoffset:0" sodipodi:type="arc" />
            <path transform="matrix(0,0.47816823,-0.47816823,0,551.03342,891.04669)" d="m 81.844248,45.847935 c 0,4.394573 -3.562506,7.957079 -7.957079,7.957079 c -4.394574,0 -7.95708,-3.562506 -7.95708,-7.957079 c 0,-4.394574 3.562506,-7.95708 7.95708,-7.95708 c 4.394573,0 7.957079,3.562506 7.957079,7.95708 z" sodipodi:ry="7.9570794" sodipodi:rx="7.9570794" sodipodi:cy="45.847935" sodipodi:cx="73.887169" id="use4782" style="fill:black;fill-opacity:1;fill-rule:nonzero;stroke:black;stroke-width:3;stroke-linecap:square;stroke-linejoin:miter;stroke-miterlimit:4;stroke-opacity:1;stroke-dasharray:none;stroke-dashoffset:0" sodipodi:type="arc" />
          </g>
          <image width="81.17041" height="62.475403" xlink:href="file:///home/sluedtke/gfz/gitIntro/session_1/pics/open_folder.jpeg" id="image4953-4" x="456.42471" y="595.75909" />
          <text sodipodi:linespacing="125%" id="text3986-9-6" y="635.99207" x="540.95386" style="font-size:20px;font-style:normal;font-variant:normal;font-weight:bold;font-stretch:normal;text-align:start;line-height:125%;letter-spacing:0px;word-spacing:0px;writing-mode:lr-tb;text-anchor:start;fill:black;fill-opacity:1;stroke:none;font-family:xkcd;-inkscape-font-specification:xkcd Bold" xml:space="preserve"><tspan y="635.99207" x="540.95386" id="tspan3988-9-4" sodipodi:role="line">flood_freq_analysis</tspan></text>
          <text sodipodi:linespacing="125%" id="text3193-2" y="674.69763" x="628.23419" style="font-size:20px;font-style:normal;font-variant:normal;font-weight:500;font-stretch:normal;text-align:start;line-height:125%;letter-spacing:0px;word-spacing:0px;writing-mode:lr-tb;text-anchor:start;fill:black;fill-opacity:1;stroke:none;font-family:xkcd;-inkscape-font-specification:xkcd Medium" xml:space="preserve"><tspan y="674.69763" x="628.23419" id="tspan3195-9" sodipodi:role="line">./FILE.R</tspan></text>
        </g>
      </g>
    </g>
  </g>
</svg>
